<svg width="330" height="330" viewBox="0 0 330 330" fill="none" xmlns="http://www.w3.org/2000/svg">
<rect width="330" height="330" fill="black"/>
<path d="M222.85 204.28C215.938 204.28 210.647 202.317 206.978 198.392C203.309 194.467 201.474 188.92 201.474 181.752V134.648C201.474 127.48 203.309 121.933 206.978 118.008C210.647 114.083 215.938 112.12 222.85 112.12C229.762 112.12 235.053 114.083 238.722 118.008C242.391 121.933 244.226 127.48 244.226 134.648V181.752C244.226 188.92 242.391 194.467 238.722 198.392C235.053 202.317 229.762 204.28 222.85 204.28ZM222.85 191.48C227.714 191.48 230.146 188.536 230.146 182.648V133.752C230.146 127.864 227.714 124.92 222.85 124.92C217.986 124.92 215.554 127.864 215.554 133.752V182.648C215.554 188.536 217.986 191.48 222.85 191.48Z" fill="white"/>
<path d="M153.307 190.456L179.419 126.2H154.587V113.4H194.523V125.944L168.411 190.2H194.523V203H153.307V190.456Z" fill="white"/>
<path d="M87.248 113.4H107.344L116.304 177.528H116.56L125.52 113.4H145.616V203H132.304V135.16H132.048L121.808 203H110.032L99.792 135.16H99.536V203H87.248V113.4Z" fill="white"/>
</svg>
